<?xml version="1.0" ?><svg data-name="Devices 2" preserveAspectRatio="xMinYMin" id="Devices_2" viewBox="0 0 60 60"  xmlns="http://www.w3.org/2000/svg"><title/><path d="M45,16a1,1,0,0,1-1-1V9a1.0013,1.0013,0,0,0-1-1H17a1.0013,1.0013,0,0,0-1,1v6a1,1,0,0,1-2,0V9a3.00328,3.00328,0,0,1,3-3H43a3.00328,3.00328,0,0,1,3,3v6A1,1,0,0,1,45,16Z" style="fill:#6d6daa"/><rect height="38" rx="2" ry="2" style="fill:#ced8ee" width="58" x="1" y="15"/><path d="M57,15H3a1.99994,1.99994,0,0,0-2,2v3a1.99994,1.99994,0,0,1,2-2H57a1.99994,1.99994,0,0,1,2,2V17A1.99994,1.99994,0,0,0,57,15Z" style="fill:#fff;opacity:0.5"/><path d="M57,50H3a1.99994,1.99994,0,0,1-2-2v3a1.99994,1.99994,0,0,0,2,2H57a1.99994,1.99994,0,0,0,2-2V48A1.99994,1.99994,0,0,1,57,50Z" style="fill:#2c4b75;opacity:0.2"/><rect height="4" style="fill:#96d7ff" width="16" x="5" y="19"/><rect height="4" style="fill:#fff;opacity:0.5" width="5" x="5.00003" y="19.00007"/><rect height="8" style="fill:#939fc6" width="10" x="25" y="37"/><rect height="3" style="fill:#2c4b75;opacity:0.2" width="10" x="24.99997" y="36.99993"/><path d="M55,28H5a1,1,0,0,1,0-2H55a1,1,0,0,1,0,2Z" style="fill:#6d6daa"/><path d="M35,34H25a1,1,0,0,1,0-2H35a1,1,0,0,1,0,2Z" style="fill:#6d6daa"/><path d="M26,50a1.00405,1.00405,0,1,1,1-1,.99042.99042,0,0,1-1,1Z" style="fill:#6d6daa"/><path d="M30,50a1,1,0,0,1-.38037-.08008,1.16214,1.16214,0,0,1-.32959-.21A1.051,1.051,0,0,1,29,49a1.3181,1.3181,0,0,1,.02-.2002.63471.63471,0,0,1,.05957-.18018.56442.56442,0,0,1,.09033-.16992c.04-.06006.08008-.10986.12012-.15967a1.15319,1.15319,0,0,1,.32959-.21045A1.00308,1.00308,0,0,1,30.71,48.29a.927.927,0,0,1,.11963.15967.56442.56442,0,0,1,.09033.16992.652.652,0,0,1,.06006.18018A1.38349,1.38349,0,0,1,31,49a.99042.99042,0,0,1-1,1Z" style="fill:#6d6daa"/><path d="M34,50a.83864.83864,0,0,1-.38037-.08008,1.16214,1.16214,0,0,1-.32959-.21.9526.9526,0,0,1-.12012-.16016.5531.5531,0,0,1-.09033-.16992.63471.63471,0,0,1-.05957-.18018A1.45441,1.45441,0,0,1,33,49a.9995.9995,0,0,1,.07959-.38037.90758.90758,0,0,1,.54-.54.95937.95937,0,0,1,.58008-.05957.63471.63471,0,0,1,.18018.05957.5531.5531,0,0,1,.16992.09033A.9526.9526,0,0,1,34.71,48.29a1.03507,1.03507,0,0,1,.21.32959A1,1,0,0,1,35,49a1.05329,1.05329,0,0,1-.29.71c-.05029.04-.1001.08008-.16016.11963a.5531.5531,0,0,1-.16992.09033.652.652,0,0,1-.18018.06006A1.38371,1.38371,0,0,1,34,50Z" style="fill:#6d6daa"/><path d="M47,22a1.24729,1.24729,0,0,1-.18994-.02.61608.61608,0,0,1-.19043-.06006.76551.76551,0,0,1-.17969-.09033A1.47452,1.47452,0,0,1,46.29,21.71a1,1,0,1,1,1.41992,0,1.59055,1.59055,0,0,1-.1499.11963.75916.75916,0,0,1-.18018.09033.652.652,0,0,1-.18018.06006A1.38371,1.38371,0,0,1,47,22Z" style="fill:#6d6daa"/><path d="M43,22a1,1,0,0,1-.38037-.08008,1.16214,1.16214,0,0,1-.32959-.21,1.59839,1.59839,0,0,1-.12012-.1499.75916.75916,0,0,1-.09033-.18018.63471.63471,0,0,1-.05957-.18018A1.318,1.318,0,0,1,42,21a.9995.9995,0,0,1,.07959-.38037.90758.90758,0,0,1,.54-.54,1.00444,1.00444,0,0,1,.76025,0A1.03554,1.03554,0,0,1,43.71,20.29a1.16214,1.16214,0,0,1,.21.32959A.83864.83864,0,0,1,44,21a1.38371,1.38371,0,0,1-.02.19971.652.652,0,0,1-.06006.18018.75916.75916,0,0,1-.09033.18018A1.59055,1.59055,0,0,1,43.71,21.71,1.05329,1.05329,0,0,1,43,22Z" style="fill:#6d6daa"/><circle cx="47" cy="41" r="8" style="fill:#eef6ff"/><circle cx="53" cy="21" r="2" style="fill:#96d7ff"/><circle cx="13" cy="41" r="8" style="fill:#eef6ff"/><circle cx="13" cy="41" r="2" style="fill:#7985a5"/><path d="M57,54H3a3.00328,3.00328,0,0,1-3-3V17a3.00328,3.00328,0,0,1,3-3H57a3.00328,3.00328,0,0,1,3,3V51A3.00328,3.00328,0,0,1,57,54ZM3,16a1.0013,1.0013,0,0,0-1,1V51a1.0013,1.0013,0,0,0,1,1H57a1.0013,1.0013,0,0,0,1-1V17a1.0013,1.0013,0,0,0-1-1Z" style="fill:#6d6daa"/><path d="M21,24H5a1,1,0,0,1-1-1V19a1,1,0,0,1,1-1H21a1,1,0,0,1,1,1v4A1,1,0,0,1,21,24ZM6,22H20V20H6Z" style="fill:#6d6daa"/><path d="M35,46H25a1,1,0,0,1-1-1V37a1,1,0,0,1,1-1H35a1,1,0,0,1,1,1v8A1,1,0,0,1,35,46Zm-9-2h8V38H26Z" style="fill:#6d6daa"/><path d="M53,24a3,3,0,1,1,3-3A3.00328,3.00328,0,0,1,53,24Zm0-4a1,1,0,1,0,1,1A1.0013,1.0013,0,0,0,53,20Z" style="fill:#6d6daa"/><path d="M13,38c4.41827,0,8,1.34314,8,3A8,8,0,0,0,5,41C5,39.34314,8.58167,38,13,38Z" style="fill:#2c4b75;opacity:0.2"/><circle cx="47" cy="41" r="2" style="fill:#7985a5"/><path d="M47,38c4.41827,0,8,1.34314,8,3a8,8,0,0,0-16,0C39,39.34314,42.58167,38,47,38Z" style="fill:#2c4b75;opacity:0.2"/><path d="M47,50a9,9,0,1,1,9-9A9.01047,9.01047,0,0,1,47,50Zm0-16a7,7,0,1,0,7,7A7.00786,7.00786,0,0,0,47,34Z" style="fill:#6d6daa"/><path d="M13,50a9,9,0,1,1,9-9A9.01047,9.01047,0,0,1,13,50Zm0-16a7,7,0,1,0,7,7A7.00786,7.00786,0,0,0,13,34Z" style="fill:#6d6daa"/></svg>